<svg width="32" height="32" viewBox="0 0 100 100" fill="none" xmlns="http://www.w3.org/2000/svg">
  <circle cx="50" cy="50" r="48" stroke="#B8860B" strokeWidth="2" />
  <circle cx="50" cy="50" r="40" stroke="#B8860B" strokeWidth="1" />
  <path
    d="M50 10L53.9 20.1H64.9L56.5 26.3L60.4 36.4L50 30.2L39.6 36.4L43.5 26.3L35.1 20.1H46.1L50 10Z"
    fill="#B8860B"
  />
  <path
    d="M50 90L46.1 79.9H35.1L43.5 73.7L39.6 63.6L50 69.8L60.4 63.6L56.5 73.7L64.9 79.9H53.9L50 90Z"
    fill="#B8860B"
  />
  <path
    d="M10 50L20.1 46.1V35.1L26.3 43.5L36.4 39.6L30.2 50L36.4 60.4L26.3 56.5L20.1 64.9V53.9L10 50Z"
    fill="#B8860B"
  />
  <path
    d="M90 50L79.9 53.9V64.9L73.7 56.5L63.6 60.4L69.8 50L63.6 39.6L73.7 43.5L79.9 35.1V46.1L90 50Z"
    fill="#B8860B"
  />
  <path
    d="M30 30L40 40M70 30L60 40M30 70L40 60M70 70L60 60"
    stroke="#B8860B"
    strokeWidth="1"
    strokeLinecap="round"
  />
  <circle cx="50" cy="50" r="15" stroke="#B8860B" strokeWidth="2" />
  <path d="M50 35V65M35 50H65" stroke="#B8860B" strokeWidth="1" />
</svg>
